<svg width="16" height="16" viewBox="0 0 16 16" fill="none" xmlns="http://www.w3.org/2000/svg">
<path d="M6.457 1.047C7.116 -0.187002 8.884 -0.187002 9.543 1.047L15.625 12.425C15.7675 12.6916 15.8385 12.9906 15.8311 13.2928C15.8237 13.595 15.7382 13.8902 15.5828 14.1495C15.4274 14.4088 15.2075 14.6235 14.9445 14.7725C14.6815 14.9216 14.3843 14.9999 14.082 15H1.918C1.61569 14.9999 1.31855 14.9216 1.05553 14.7725C0.792517 14.6235 0.572599 14.4088 0.417208 14.1495C0.261818 13.8902 0.176256 13.595 0.168859 13.2928C0.161462 12.9906 0.232484 12.6916 0.375003 12.425L6.457 1.047ZM8 5C7.80109 5 7.61032 5.07902 7.46967 5.21967C7.32902 5.36032 7.25 5.55109 7.25 5.75V8.25C7.25 8.44891 7.32902 8.63968 7.46967 8.78033C7.61032 8.92098 7.80109 9 8 9C8.19892 9 8.38968 8.92098 8.53033 8.78033C8.67098 8.63968 8.75 8.44891 8.75 8.25V5.75C8.75 5.55109 8.67098 5.36032 8.53033 5.21967C8.38968 5.07902 8.19892 5 8 5ZM9 11C9 10.7348 8.89465 10.4804 8.70711 10.2929C8.51957 10.1054 8.26522 10 8 10C7.73479 10 7.48043 10.1054 7.2929 10.2929C7.10536 10.4804 7 10.7348 7 11C7 11.2652 7.10536 11.5196 7.2929 11.7071C7.48043 11.8946 7.73479 12 8 12C8.26522 12 8.51957 11.8946 8.70711 11.7071C8.89465 11.5196 9 11.2652 9 11Z" fill="#FAB005"/>
</svg>
